<svg width="76" height="25" viewBox="0 0 76 25" fill="none" xmlns="http://www.w3.org/2000/svg">
<path d="M13.8772 24H0.215156V0.899998H2.95416V21.558H13.8772V24ZM14.1146 12.45C14.1146 8.6 14.9286 5.652 16.5566 3.606C18.1846 1.538 20.5056 0.504 23.5196 0.504C25.1476 0.504 26.5556 0.789999 27.7436 1.362C28.9316 1.934 29.9106 2.748 30.6806 3.804C31.4726 4.838 32.0556 6.092 32.4296 7.566C32.8036 9.018 32.9906 10.646 32.9906 12.45C32.9906 16.3 32.1656 19.259 30.5156 21.327C28.8876 23.373 26.5556 24.396 23.5196 24.396C21.9136 24.396 20.5166 24.11 19.3286 23.538C18.1626 22.966 17.1836 22.163 16.3916 21.129C15.6216 20.073 15.0496 18.819 14.6756 17.367C14.3016 15.893 14.1146 14.254 14.1146 12.45ZM17.0186 12.45C17.0186 13.726 17.1396 14.936 17.3816 16.08C17.6456 17.224 18.0416 18.236 18.5696 19.116C19.0976 19.974 19.7686 20.667 20.5826 21.195C21.4186 21.701 22.3976 21.954 23.5196 21.954C25.5656 21.954 27.1716 21.184 28.3376 19.644C29.5036 18.082 30.0866 15.684 30.0866 12.45C30.0866 11.196 29.9546 9.997 29.6906 8.853C29.4486 7.687 29.0526 6.675 28.5026 5.817C27.9746 4.937 27.2926 4.244 26.4566 3.738C25.6426 3.21 24.6636 2.946 23.5196 2.946C21.4956 2.946 19.9006 3.727 18.7346 5.289C17.5906 6.829 17.0186 9.216 17.0186 12.45ZM45.4182 12.483H53.1732V22.647C52.8212 22.911 52.3922 23.153 51.8862 23.373C51.4022 23.593 50.8742 23.78 50.3022 23.934C49.7522 24.088 49.1692 24.198 48.5532 24.264C47.9592 24.352 47.3762 24.396 46.8042 24.396C45.3302 24.396 43.9772 24.165 42.7452 23.703C41.5132 23.219 40.4462 22.493 39.5442 21.525C38.6422 20.535 37.9382 19.292 37.4322 17.796C36.9262 16.278 36.6732 14.496 36.6732 12.45C36.6732 10.316 36.9812 8.49 37.5972 6.972C38.2132 5.454 39.0162 4.222 40.0062 3.276C40.9962 2.308 42.1072 1.604 43.3392 1.164C44.5712 0.723999 45.8032 0.504 47.0352 0.504C48.3552 0.504 49.4442 0.580999 50.3022 0.734999C51.1602 0.866998 51.8862 1.054 52.4802 1.296L51.7872 3.705C50.7312 3.199 49.2242 2.946 47.2662 2.946C46.3422 2.946 45.4182 3.111 44.4942 3.441C43.5922 3.749 42.7782 4.277 42.0522 5.025C41.3262 5.773 40.7322 6.752 40.2702 7.962C39.8082 9.172 39.5772 10.668 39.5772 12.45C39.5772 14.078 39.7642 15.486 40.1382 16.674C40.5122 17.862 41.0292 18.852 41.6892 19.644C42.3712 20.414 43.1852 20.997 44.1312 21.393C45.0772 21.767 46.1112 21.954 47.2332 21.954C48.6412 21.954 49.8402 21.679 50.8302 21.129V14.694L45.4182 14.034V12.483ZM56.8793 12.45C56.8793 8.6 57.6933 5.652 59.3213 3.606C60.9493 1.538 63.2703 0.504 66.2843 0.504C67.9123 0.504 69.3203 0.789999 70.5083 1.362C71.6963 1.934 72.6753 2.748 73.4453 3.804C74.2373 4.838 74.8203 6.092 75.1943 7.566C75.5683 9.018 75.7553 10.646 75.7553 12.45C75.7553 16.3 74.9303 19.259 73.2803 21.327C71.6523 23.373 69.3203 24.396 66.2843 24.396C64.6783 24.396 63.2813 24.11 62.0933 23.538C60.9273 22.966 59.9483 22.163 59.1562 21.129C58.3863 20.073 57.8143 18.819 57.4403 17.367C57.0663 15.893 56.8793 14.254 56.8793 12.45ZM59.7833 12.45C59.7833 13.726 59.9043 14.936 60.1463 16.08C60.4103 17.224 60.8063 18.236 61.3343 19.116C61.8623 19.974 62.5333 20.667 63.3473 21.195C64.1833 21.701 65.1623 21.954 66.2843 21.954C68.3303 21.954 69.9363 21.184 71.1023 19.644C72.2683 18.082 72.8513 15.684 72.8513 12.45C72.8513 11.196 72.7193 9.997 72.4552 8.853C72.2133 7.687 71.8173 6.675 71.2673 5.817C70.7393 4.937 70.0573 4.244 69.2213 3.738C68.4073 3.21 67.4283 2.946 66.2843 2.946C64.2603 2.946 62.6653 3.727 61.4993 5.289C60.3553 6.829 59.7833 9.216 59.7833 12.45Z" fill="white"/>
</svg>
