<svg width="40" height="40" viewBox="0 0 40 40" fill="none" xmlns="http://www.w3.org/2000/svg">
<path d="M21.5194 11.3682L21.7031 11.5276L21.942 11.4814L24.4982 10.9871L25.3482 13.448L25.4276 13.6779L25.6575 13.7573L28.1185 14.6074L27.6241 17.1636L27.5779 17.4024L27.7374 17.5862L29.4436 19.5528L27.7374 21.5194L27.5779 21.7031L27.6241 21.942L28.1185 24.4982L25.6575 25.3482L25.4276 25.4276L25.3482 25.6575L24.4982 28.1185L21.942 27.6241L21.7031 27.5779L21.5194 27.7374L19.5528 29.4436L17.5862 27.7374L17.4024 27.5779L17.1636 27.6241L14.6074 28.1185L13.7573 25.6575L13.6779 25.4276L13.448 25.3482L10.9871 24.4982L11.4814 21.942L11.5276 21.7031L11.3682 21.5194L9.66195 19.5528L11.3682 17.5862L11.5276 17.4024L11.4814 17.1636L10.9871 14.6074L13.448 13.7573L13.6779 13.6779L13.7573 13.448L14.6074 10.9871L17.1636 11.4814L17.4024 11.5276L17.5862 11.3682L19.5528 9.66195L21.5194 11.3682Z" stroke="#417A82"/>
<circle cx="19.5527" cy="19.5529" r="5.53015" stroke="#417A82"/>
</svg>
