<svg width="40" height="40" viewBox="0 0 40 40" fill="none" xmlns="http://www.w3.org/2000/svg">
<rect x="7.5" y="28.5" width="24" height="2" stroke="#417A82"/>
<rect x="9.5" y="26.5" width="20" height="2" stroke="#417A82"/>
<path d="M19.9762 14.8509H19.0238C19.0229 14.8505 19.0229 14.8505 19.0229 14.8505L19.0228 14.8509L19.0225 14.8515L19.0178 14.8655C19.0131 14.8792 19.0054 14.9011 18.9944 14.93C18.9723 14.9881 18.9375 15.074 18.8886 15.1784C18.7901 15.3885 18.6377 15.6666 18.4224 15.9422C17.993 16.4918 17.3428 17 16.375 17C15.4072 17 14.757 16.4918 14.3276 15.9422C14.1123 15.6666 13.9599 15.3885 13.8614 15.1784C13.8125 15.074 13.7777 14.9881 13.7556 14.93C13.7446 14.9011 13.7369 14.8792 13.7322 14.8655L13.7275 14.8515L13.727 14.8502L13.7271 14.8505C13.7271 14.8505 13.7271 14.8505 13.7262 14.8509H12.7738C12.7729 14.8505 12.7729 14.8505 12.7729 14.8505L12.7725 14.8515L12.7678 14.8655C12.7631 14.8792 12.7554 14.9011 12.7444 14.93C12.7223 14.9881 12.6875 15.074 12.6386 15.1784C12.5401 15.3885 12.3877 15.6666 12.1724 15.9422C11.743 16.4918 11.0928 17 10.125 17C9.12814 17 8.47339 16.5461 8.05497 16.0819C7.84335 15.8471 7.69422 15.611 7.59848 15.434C7.5756 15.3917 7.55594 15.3531 7.53935 15.3191L9.3465 10.5H29.6535L31.4606 15.3191C31.4441 15.3531 31.4244 15.3917 31.4015 15.434C31.3058 15.611 31.1567 15.8471 30.945 16.0819C30.5266 16.5461 29.8719 17 28.875 17C27.9072 17 27.257 16.4918 26.8276 15.9422C26.6123 15.6666 26.4599 15.3885 26.3614 15.1784C26.3125 15.074 26.2777 14.9881 26.2556 14.93C26.2446 14.9011 26.2369 14.8792 26.2322 14.8655L26.2275 14.8515L26.2272 14.8509L26.2271 14.8505C26.2271 14.8505 26.2271 14.8505 26.2262 14.8509H25.2738C25.2729 14.8505 25.2729 14.8505 25.2729 14.8505L25.2728 14.8509L25.2725 14.8515L25.2678 14.8655C25.2631 14.8792 25.2554 14.9011 25.2444 14.93C25.2223 14.9881 25.1875 15.074 25.1386 15.1784C25.0401 15.3885 24.8877 15.6666 24.6724 15.9422C24.243 16.4918 23.5928 17 22.625 17C21.6572 17 21.007 16.4918 20.5776 15.9422C20.3623 15.6666 20.2099 15.3885 20.1114 15.1784C20.0625 15.074 20.0277 14.9881 20.0056 14.93C19.9946 14.9011 19.9869 14.8792 19.9822 14.8655L19.9775 14.8515L19.9772 14.8509L19.9771 14.8505C19.9771 14.8505 19.9771 14.8505 19.9762 14.8509Z" stroke="#417A82" stroke-linejoin="bevel"/>
<line x1="9.5" y1="17" x2="9.5" y2="26" stroke="#417A82"/>
<line x1="29.5" y1="17" x2="29.5" y2="26" stroke="#417A82"/>
<rect x="9.5" y="8.5" width="20" height="2" stroke="#417A82"/>
<line x1="8" y1="14.5" x2="31" y2="14.5" stroke="#417A82"/>
</svg>
