<svg width="40" height="40" viewBox="0 0 40 40" fill="none" xmlns="http://www.w3.org/2000/svg">
<rect x="7.5" y="9.5" width="24" height="2" stroke="#417A82"/>
<rect x="9.5" y="14.5" width="20" height="3" stroke="#417A82"/>
<rect x="9.5" y="17.5" width="20" height="3" stroke="#417A82"/>
<rect x="9.5" y="20.5" width="20" height="3" stroke="#417A82"/>
<rect x="9.5" y="23.5" width="20" height="3" stroke="#417A82"/>
<rect x="9.5" y="26.5" width="20" height="3" stroke="#417A82"/>
<path d="M11.5 11L11.5 15" stroke="#417A82"/>
<line x1="11.5" y1="15" x2="11.5" y2="16" stroke="#417A82"/>
<line x1="11.5" y1="18" x2="11.5" y2="19" stroke="#417A82"/>
<line x1="11.5" y1="20.0454" x2="11.5" y2="20.7992" stroke="#417A82"/>
<line x1="11.5" y1="23.0605" x2="11.5" y2="23.8143" stroke="#417A82"/>
<line x1="11.5" y1="27" x2="11.5" y2="28" stroke="#417A82"/>
<line x1="11.5" y1="24" x2="11.5" y2="25" stroke="#417A82"/>
<line x1="11.5" y1="21" x2="11.5" y2="22" stroke="#417A82"/>
<path d="M27.4999 11L27.4999 14.5" stroke="#417A82"/>
<line x1="27.4999" y1="15" x2="27.4999" y2="16" stroke="#417A82"/>
<line x1="27.4999" y1="18" x2="27.4999" y2="19" stroke="#417A82"/>
<line x1="27.4999" y1="27" x2="27.4999" y2="28" stroke="#417A82"/>
<line x1="27.4999" y1="24" x2="27.4999" y2="25" stroke="#417A82"/>
<line x1="27.4999" y1="21" x2="27.4999" y2="22" stroke="#417A82"/>
</svg>
