<svg width="40" height="40" viewBox="0 0 40 40" fill="none" xmlns="http://www.w3.org/2000/svg">
<path d="M9.98125 23.5249H11.6972C12.3654 23.5249 12.9248 24.0312 12.9913 24.696L13.3962 28.7448C13.5474 30.2575 12.3595 31.5701 10.8392 31.5701C9.31895 31.5701 8.13102 30.2575 8.2823 28.7448L8.68717 24.696C8.75365 24.0312 9.3131 23.5249 9.98125 23.5249Z" stroke="#417A82"/>
<circle cx="10.8391" cy="26.4173" r="1.13065" fill="#417A82"/>
<rect x="7.5" y="7.5" width="24" height="2" stroke="#417A82"/>
<path d="M29.5151 10L29.5151 29" stroke="#417A82"/>
<path d="M24.5302 12L24.5302 27" stroke="#417A82"/>
<line x1="21.5" y1="12" x2="21.5" y2="27.0754" stroke="#417A82"/>
<line x1="18.5" y1="12" x2="18.5" y2="27.0754" stroke="#417A82"/>
<path d="M15.5 12L15.5 26.0402" stroke="#417A82"/>
<path d="M12.5 12L12.5 22" stroke="#417A82"/>
<path d="M9.50012 21.9221V11.5H27.4221V28.5H15.0001" stroke="#417A82"/>
</svg>
