<svg width="40" height="40" viewBox="0 0 40 40" fill="none" xmlns="http://www.w3.org/2000/svg">
<rect x="8.49988" y="6.5" width="24" height="2" stroke="#417A82"/>
<path d="M10.4999 8.5H30.4999V28.5H16.5624H10.4999V20.5V8.5Z" stroke="#417A82"/>
<mask id="path-3-inside-1_105_203" fill="white">
<path d="M10 20C10.5253 20 11.0454 19.8836 11.5307 19.6575C12.016 19.4313 12.457 19.0998 12.8284 18.682C13.1999 18.2641 13.4945 17.768 13.6955 17.2221C13.8965 16.6761 14 16.0909 14 15.5C14 14.9091 13.8965 14.3239 13.6955 13.7779C13.4945 13.232 13.1999 12.7359 12.8284 12.318C12.457 11.9002 12.016 11.5687 11.5307 11.3425C11.0454 11.1164 10.5253 11 10 11L10 15.5L10 20Z"/>
</mask>
<path d="M10 20C10.5253 20 11.0454 19.8836 11.5307 19.6575C12.016 19.4313 12.457 19.0998 12.8284 18.682C13.1999 18.2641 13.4945 17.768 13.6955 17.2221C13.8965 16.6761 14 16.0909 14 15.5C14 14.9091 13.8965 14.3239 13.6955 13.7779C13.4945 13.232 13.1999 12.7359 12.8284 12.318C12.457 11.9002 12.016 11.5687 11.5307 11.3425C11.0454 11.1164 10.5253 11 10 11L10 15.5L10 20Z" stroke="#417A82" stroke-width="2" mask="url(#path-3-inside-1_105_203)"/>
<mask id="path-4-inside-2_105_203" fill="white">
<path d="M29 29C29 28.4747 28.8836 27.9546 28.6575 27.4693C28.4313 26.984 28.0998 26.543 27.682 26.1716C27.2641 25.8001 26.768 25.5055 26.2221 25.3045C25.6761 25.1035 25.0909 25 24.5 25C23.9091 25 23.3239 25.1035 22.7779 25.3045C22.232 25.5055 21.7359 25.8001 21.318 26.1716C20.9002 26.543 20.5687 26.984 20.3425 27.4693C20.1164 27.9546 20 28.4747 20 29L24.5 29H29Z"/>
</mask>
<path d="M29 29C29 28.4747 28.8836 27.9546 28.6575 27.4693C28.4313 26.984 28.0998 26.543 27.682 26.1716C27.2641 25.8001 26.768 25.5055 26.2221 25.3045C25.6761 25.1035 25.0909 25 24.5 25C23.9091 25 23.3239 25.1035 22.7779 25.3045C22.232 25.5055 21.7359 25.8001 21.318 26.1716C20.9002 26.543 20.5687 26.984 20.3425 27.4693C20.1164 27.9546 20 28.4747 20 29L24.5 29H29Z" stroke="#417A82" stroke-width="2" mask="url(#path-4-inside-2_105_203)"/>
<circle cx="26.5" cy="12.5" r="2" stroke="#417A82"/>
<circle cx="14.5" cy="24.5" r="2" stroke="#417A82"/>
<circle cx="22.5" cy="19.5" r="3" stroke="#417A82"/>
<line x1="18.5" y1="9" x2="18.5" y2="28" stroke="#417A82"/>
<line x1="22.5" y1="9" x2="22.5" y2="28" stroke="#417A82"/>
<line x1="26.5" y1="9" x2="26.5" y2="28" stroke="#417A82"/>
<line x1="14.5" y1="9" x2="14.5" y2="28" stroke="#417A82"/>
</svg>
