<svg width="40" height="40" viewBox="0 0 40 40" fill="none" xmlns="http://www.w3.org/2000/svg">
<path d="M9.62601 11.5H29.3865L28.5217 14.3551L28.4756 14.5073L28.5259 14.6581L29.4732 17.5L28.5259 20.3419L28.4732 20.5L28.5259 20.6581L29.4732 23.5L28.5259 26.3419L28.4761 26.4912L28.5209 26.6421L29.3906 29.5754H9.62196L10.4802 26.6403L10.524 26.4902L10.4746 26.3419L9.52729 23.5L10.4746 20.6581L10.5273 20.5L10.4746 20.3419L9.52729 17.5L10.4746 14.6581L10.5245 14.5083L10.4793 14.3569L9.62601 11.5Z" stroke="#417A82"/>
<rect x="7.5" y="9.5" width="24" height="2" stroke="#417A82"/>
<path d="M10 14.5L28.5 14.5" stroke="#417A82"/>
<path d="M10.5 20.5L28.5 20.5" stroke="#417A82"/>
<line x1="9.7085" y1="23.5" x2="29.3065" y2="23.5" stroke="#417A82"/>
<line x1="9.70862" y1="29.5752" x2="29.3066" y2="29.5752" stroke="#417A82"/>
<line x1="10" y1="17.5" x2="29.598" y2="17.5" stroke="#417A82"/>
<path d="M10.5 26.5L28.5 26.5" stroke="#417A82"/>
</svg>
