<svg width="40" height="40" viewBox="0 0 40 40" fill="none" xmlns="http://www.w3.org/2000/svg">
<path d="M17.4385 26.7508L17.8366 25.3291H26.5756L26.9737 26.7508L26.5144 30.3593H17.8977L17.4385 26.7508Z" stroke="#417A82"/>
<line x1="17.1909" y1="27.3191" x2="27.1909" y2="27.3191" stroke="#417A82"/>
<path d="M24.6909 18.6858V25.319H19.6909V17.6828L24.6909 18.6858Z" stroke="#417A82"/>
<path d="M16.7075 10.7692L27.4825 12.9237C29.1584 13.2589 30.2454 14.8891 29.9103 16.565C29.5751 18.241 27.9449 19.3279 26.269 18.9928L15.4939 16.8382C14.6816 16.6758 14.1547 15.8856 14.3172 15.0732L14.9425 11.9459C15.1049 11.1336 15.8952 10.6067 16.7075 10.7692Z" stroke="#417A82"/>
<line x1="28.5109" y1="13.286" x2="27.3576" y2="19.0539" stroke="#417A82"/>
<line x1="16.9627" y1="10.9213" x2="15.6812" y2="17.33" stroke="#417A82"/>
<path d="M14.2342 11.6075L14.9708 11.7548L14.2698 15.2604L13.5333 15.1131C12.7209 14.9507 12.1941 14.1604 12.3565 13.3481L12.4692 12.7843C12.6317 11.972 13.4219 11.4451 14.2342 11.6075Z" stroke="#417A82"/>
<line x1="12.6274" y1="13.2859" x2="9.67088" y2="12.6948" stroke="#417A82"/>
</svg>
